<svg width="24" height="24" viewBox="0 0 24 24" fill="none" xmlns="http://www.w3.org/2000/svg">
<path d="M12 3V16M12 16L16 11.625M12 16L8 11.625" stroke="white" stroke-width="2" stroke-linecap="round" stroke-linejoin="round"/>
<path d="M15 21H9C6.12854 21 4.6928 21 3.80073 20.108C2.90866 19.216 2.90866 17.7802 2.90866 14.9087V12.9087C2.90866 10.0372 2.90866 8.60143 3.80073 7.70936C4.6928 6.81729 6.12854 6.81729 9 6.81729H15C17.8715 6.81729 19.3072 6.81729 20.1993 7.70936C21.0913 8.60143 21.0913 10.0372 21.0913 12.9087V14.9087C21.0913 17.7802 21.0913 19.216 20.1993 20.108C19.3072 21 17.8715 21 15 21Z" stroke="white" stroke-width="2"/>
</svg>
