<svg width="24" height="24" viewBox="0 0 24 24" fill="none" xmlns="http://www.w3.org/2000/svg">
<rect x="2" y="2" width="20" height="20" rx="5" stroke="currentColor" stroke-width="2"/>
<path d="M16 11.37C16.1234 12.2022 15.9813 13.0522 15.5938 13.799C15.2063 14.5458 14.5931 15.1514 13.8416 15.5297C13.0901 15.9079 12.2384 16.0396 11.4078 15.9059C10.5771 15.7723 9.80976 15.3801 9.21484 14.7852C8.61991 14.1902 8.22773 13.4229 8.09406 12.5922C7.96039 11.7616 8.09206 10.9099 8.47032 10.1584C8.84858 9.40685 9.45418 8.79374 10.201 8.40624C10.9478 8.01874 11.7978 7.87658 12.63 8C13.4789 8.12588 14.2648 8.52146 14.8717 9.1283C15.4785 9.73515 15.8741 10.5211 16 11.37Z" stroke="currentColor" stroke-width="2" stroke-linecap="round" stroke-linejoin="round"/>
<line x1="17.5" y1="6.5" x2="17.51" y2="6.5" stroke="currentColor" stroke-width="2" stroke-linecap="round" stroke-linejoin="round"/>
</svg>
